<svg xmlns="http://www.w3.org/2000/svg" viewBox="0 0 160 160" role="img" aria-label="Pan y Circo"><rect width="160" height="160" rx="34" fill="#0d0d10"/><path d="M50 57c0-16 13-29 30-29s30 13 30 29v50c0 17-13 30-30 30s-30-13-30-30z" fill="#fff"/><path d="M58 61c13 9 31 9 44 0" fill="none" stroke="#ff1238" stroke-width="8" stroke-linecap="round"/><circle cx="68" cy="82" r="6" fill="#0d0d10"/><circle cx="92" cy="82" r="6" fill="#0d0d10"/><path d="M66 106c9 7 19 7 28 0" fill="none" stroke="#0d0d10" stroke-width="7" stroke-linecap="round"/><path d="M34 48h92l-8 18H42z" fill="#ff1238"/><path d="M38 48c10-18 21-18 31 0M69 48c10-18 21-18 31 0M100 48c10-18 21-18 31 0" fill="none" stroke="#fff" stroke-width="5" stroke-linecap="round"/></svg>
